PathFileType	4	(X/Y/Z)	c:\Git\powerlifing_model_clean\simulations\HC835B\Session1\HC835B_OGW_0004\marker_experimental.trc
DataRate	CameraRate	NumFrames	NumMarkers	Units	OrigDataRate	OrigDataStartFrame	OrigNumFrames
240.000000	240.000000	4	38	mm	240.000000	321	429
Frame#	Time	RPSI			LPSI			RASI			LASI			RTH1			RTH2			RTH3			RTH4			RSK1			RSK2			RSK3			RSK4			RCAL1			RCAL2			RCAL3			RST			RPT			RTN			RFMB			RSMB			RVMB			RFMH			RSMH			RVMH			RPM			LTH1			LTH2			LTH3			LTH4			LSK1			LSK2			LSK3			LSK4			LCAL1			LCAL2			LCAL3			LFMH			LVMH			
		X1	Y1	Z1	X2	Y2	Z2	X3	Y3	Z3	X4	Y4	Z4	X5	Y5	Z5	X6	Y6	Z6	X7	Y7	Z7	X8	Y8	Z8	X9	Y9	Z9	X10	Y10	Z10	X11	Y11	Z11	X12	Y12	Z12	X13	Y13	Z13	X14	Y14	Z14	X15	Y15	Z15	X16	Y16	Z16	X17	Y17	Z17	X18	Y18	Z18	X19	Y19	Z19	X20	Y20	Z20	X21	Y21	Z21	X22	Y22	Z22	X23	Y23	Z23	X24	Y24	Z24	X25	Y25	Z25	X26	Y26	Z26	X27	Y27	Z27	X28	Y28	Z28	X29	Y29	Z29	X30	Y30	Z30	X31	Y31	Z31	X32	Y32	Z32	X33	Y33	Z33	X34	Y34	Z34	X35	Y35	Z35	X36	Y36	Z36	X37	Y37	Z37	X38	Y38	Z38	

322	1.3375	427.6213684082032	1137.814575195313	-440.2275390625001	537.3223876953126	1130.385986328125	-445.4459838867189	379.8626098632813	1105.378540039063	-226.1953430175782	623.9676513671876	1092.02490234375	-242.4992675781251	311.9439086914063	823.1169433593752	-267.8448181152344	325.8939819335938	819.5422363281252	-207.4990386962891	328.3436279296876	746.2953491210939	-236.3727264404297	353.7301940917969	742.1737670898439	-183.701644897461	389.0784912109376	293.2558288574219	-295.2536010742188	388.519989013672	279.9960632324219	-235.2012939453126	397.1067199707032	237.7199249267579	-278.6679382324219	410.090789794922	226.3566894531251	-220.5849151611329	471.9811096191407	93.22584533691408	-331.9625854492188	501.3043212890626	55.40135192871095	-319.2885742187501	437.566375732422	55.36596298217775	-330.4866027832032	507.7849731445314	73.24404907226564	-251.2193603515626	407.4885253906251	69.61919403076173	-274.2500610351563	488.758514404297	95.62998962402345	-197.5114135742188	481.4829711914064	80.79237365722658	-165.2144470214844	432.4649047851564	104.5548248291016	-163.2145690917969	391.5115966796876	46.90368270874024	-231.2774658203126	477.6790771484376	54.41849517822267	-110.4525375366211	422.6855773925782	71.12734985351564	-103.1273345947266	366.9139404296876	43.77037429809571	-153.6886749267578	427.8844299316407	63.04581451416017	-45.02867889404298	701.8527832031251	811.9619750976565	-277.7741699218751	714.2257080078126	817.4379882812502	-218.3638000488282	712.1589355468751	738.2425537109376	-235.6651916503907	708.8306274414064	743.5139160156251	-174.8714294433594	660.0427856445314	432.528778076172	-436.1044311523439	674.5914916992189	384.7247314453126	-417.5637207031251	657.5789184570314	383.5965881347657	-464.5445556640626	655.2216796875001	333.7165832519532	-438.3730468750001	580.5909423828126	332.4210815429688	-587.6205444335939	601.9140625000001	310.5232238769532	-624.5820312500001	545.1901855468751	308.3659362792969	-608.5872802734376	571.7307128906251	129.3306579589844	-483.0576477050782	660.6648559570314	141.2316284179688	-550.5980834960939	
323	1.341666666666667	427.4885253906251	1139.3828125	-434.0426635742189	537.1008911132814	1131.745483398438	-439.4151306152345	379.3446960449219	1106.36669921875	-220.1962280273438	623.6585693359376	1093.759765625	-236.3916015625001	310.5232543945313	824.149353027344	-263.8708190917969	326.1274414062501	820.290710449219	-202.9891662597657	328.1081848144532	746.6094970703126	-233.6700439453126	353.3716735839844	742.0582885742189	-180.9522247314453	388.8897399902345	293.5167236328126	-294.7699279785157	388.9613037109376	280.0039672851563	-234.6320953369141	396.7097167968751	238.2524414062501	-278.1422729492188	409.837615966797	226.3574829101563	-220.3306579589844	471.947723388672	93.31616973876955	-331.9548034667969	501.2858276367189	55.52466964721681	-319.2839355468751	437.5260620117189	55.43060302734376	-330.4943847656251	507.7775878906251	73.36169433593751	-251.1993103027344	407.4409790039064	69.74264526367189	-274.2349853515626	488.7117309570314	95.7064666748047	-197.4303894042969	481.4490661621095	80.8533172607422	-165.1923217773438	432.3946838378907	104.5793075561524	-163.1890411376953	391.4611206054689	46.91610717773438	-231.2598724365235	477.6096801757814	54.41075134277345	-110.4141693115235	422.6184082031251	71.06314086914064	-103.1256637573242	366.8760681152344	43.71516418457032	-153.6555633544922	427.8567810058595	62.96372222900392	-44.98627471923829	702.1172485351564	814.1216430664065	-268.8215026855469	713.8536376953126	820.2546386718752	-209.6259002685547	712.4068603515626	740.9183349609376	-225.9214324951172	708.7517089843751	746.7271728515626	-165.2391204833985	659.8145141601564	432.100311279297	-422.7383728027345	674.3143310546876	384.5900878906251	-403.6187744140626	657.3006591796876	382.7845458984376	-450.5056457519532	654.9534301757814	333.3084411621094	-423.6530761718751	580.2690429687501	329.9742431640626	-572.8575439453126	601.4891967773439	307.3034362792969	-609.5260009765626	544.8059082031251	305.3569030761719	-593.4633789062501	571.5248413085939	128.4308624267578	-465.238006591797	660.4531250000001	139.3459930419922	-532.9216918945314	
324	1.345833333333333	427.2731933593751	1140.623291015625	-427.8424072265626	537.0307006835939	1133.340087890625	-433.168670654297	378.8930969238282	1107.270385742188	-214.248764038086	623.2659301757814	1095.411376953125	-230.2873992919922	310.3615417480469	824.6033325195315	-260.3623657226563	324.8771972656251	818.8905029296877	-201.8494415283204	327.8292236328126	746.9058227539064	-230.8980407714844	352.9815673828126	741.8479003906251	-178.1425933837891	388.8508300781251	293.8276977539063	-294.3466491699219	388.808319091797	280.1884765625001	-234.3648071289063	396.5186767578126	238.6064147949219	-277.7702026367188	409.640350341797	226.4798736572266	-220.0975494384766	471.9121704101564	93.4337844848633	-331.9355163574219	501.2338256835939	55.66634368896486	-319.2960815429688	437.5094299316407	55.55546188354494	-330.4945983886719	507.745330810547	73.67256927490236	-251.0973358154297	407.4021911621095	69.8367156982422	-274.2299804687501	488.6651000976564	95.73764801025392	-197.4125061035157	481.3748779296876	80.8623504638672	-165.1892395019532	432.2901000976564	104.55517578125	-163.1847686767578	391.4274902343751	46.97151947021485	-231.274398803711	477.5028381347657	54.38649368286134	-110.4091949462891	422.5864257812501	71.03676605224611	-103.1213531494141	366.8357543945313	43.7107048034668	-153.6632690429688	427.8277893066407	62.85602188110353	-44.9392433166504	702.2803344726564	816.265075683594	-259.9096069335938	714.1108398437501	822.6328125000002	-200.6041870117188	712.6964721679689	743.5622558593751	-216.1958312988282	708.6716918945314	749.9661254882814	-155.6297149658203	659.6237182617189	431.5532531738282	-409.3829956054689	674.0780029296876	384.1044311523439	-389.5643920898439	656.9469604492189	381.8114318847657	-436.4315185546876	654.5874023437501	332.6717529296876	-408.8584899902345	579.7720336914064	327.0155944824219	-558.0880737304689	601.1599731445314	303.9111328125001	-594.3473510742189	544.4854125976564	302.1593017578126	-578.4626464843751	571.3853759765626	127.4197845458985	-447.223358154297	660.2696533203126	137.2786865234375	-515.0244750976564	
325	1.35	427.2513427734376	1142.101806640625	-421.6572265625001	536.7762451171876	1134.59619140625	-427.1362304687501	378.4419250488282	1108.1943359375	-208.2879180908204	622.8557128906251	1097.045654296875	-224.1485595703126	310.1344299316407	825.477233886719	-256.8380432128907	324.9152221679688	819.4555664062502	-197.3165740966797	327.5763549804688	747.2069091796876	-228.1161651611329	352.6332092285157	741.7011718750001	-175.3414154052735	388.8543395996095	294.2259216308594	-294.0621948242188	388.6767883300782	280.3177795410157	-234.1072692871094	396.461151123047	238.8386688232422	-277.5735778808594	409.3250732421876	226.5472412109376	-219.9031829833985	471.9099426269532	93.55090332031251	-331.9137268066407	501.2315368652345	55.77972412109376	-319.2858581542969	437.5131225585939	55.61055374145509	-330.4993591308594	507.7306213378907	73.77327728271486	-251.0761108398438	407.3817749023439	69.9801483154297	-274.1972656250001	488.6340332031251	95.7925491333008	-197.3667297363282	481.3077697753907	80.88113403320314	-165.1798400878907	432.2012634277345	104.5450439453125	-163.1620635986328	391.3698120117189	46.99359893798829	-231.2655334472657	477.4500427246095	54.36649322509767	-110.3733749389649	422.5003051757814	70.96524810791017	-103.1107940673828	366.7772521972657	43.65520858764649	-153.6465759277344	427.7958984375001	62.76302719116212	-44.92084121704102	702.6068725585939	818.3874511718752	-251.0097656250001	713.9492187500001	825.0845947265627	-192.6156005859376	712.9217529296876	746.1717529296876	-206.5172119140626	708.5104370117189	753.2034912109376	-146.0715026855469	659.3389892578126	430.7015991210939	-395.9364318847657	673.7630004882814	383.6589660644532	-375.4884338378907	656.6583251953126	380.7301940917969	-422.2943115234376	654.2316284179689	331.9518432617188	-394.0169372558595	579.3473510742189	324.0399475097657	-543.4075317382814	600.7697753906251	300.2959899902344	-579.2709350585939	544.0238037109376	298.6111450195313	-563.2297973632814	571.2871093750001	126.316162109375	-428.9512939453126	660.1760253906251	135.1247100830078	-496.8556213378907	
